<svg width="7" height="11" fill="none" xmlns="http://www.w3.org/2000/svg"><path d="M7 .31a.3.3 0 00-.093-.217.325.325 0 00-.225-.09H5.09a3.113 3.113 0 00-2.182.745 2.87 2.87 0 00-1 2.005v1.65H.32a.325.325 0 00-.226.089.3.3 0 00-.093.216v1.588a.3.3 0 00.093.216c.06.057.14.09.225.09H1.91v4.092a.3.3 0 00.093.216c.06.058.14.09.225.09h1.91a.325.325 0 00.224-.09.3.3 0 00.094-.216V6.601h1.667c.07.001.14-.02.196-.061a.305.305 0 00.116-.165l.458-1.588a.294.294 0 00-.054-.264.316.316 0 00-.252-.12H4.455v-1.65a.603.603 0 01.207-.393.652.652 0 01.429-.157h1.59a.325.325 0 00.226-.09A.3.3 0 007 1.897V.31z" fill="#fff"/></svg>