<svg width="13" height="14" fill="none" xmlns="http://www.w3.org/2000/svg"><path d="M6.158.002C5.058.016 2.695.2 1.374 1.44.39 2.436.047 3.908.007 5.729c-.033 1.814-.074 5.22 3.139 6.148v1.413s-.02.565.345.681c.45.146.707-.289 1.135-.756l.798-.923c2.198.187 3.882-.244 4.076-.307.446-.146 2.958-.474 3.368-3.882.421-3.518-.205-5.736-1.335-6.738h-.007C11.185 1.043 9.814.022 6.75.01c0 0-.228-.016-.593-.01v.001zm.038.99c.312-.003.501.01.501.01 2.593.008 3.83.805 4.122 1.074.952.834 1.443 2.833 1.083 5.77-.34 2.849-2.378 3.03-2.755 3.152-.16.053-1.643.426-3.511.303 0 0-1.391 1.716-1.826 2.158-.07.078-.15.1-.201.09-.074-.02-.096-.112-.092-.24l.014-2.345C.806 10.194.967 7.288.996 5.77c.033-1.518.312-2.76 1.141-3.6C3.254 1.137 5.261.998 6.195.99zM6.4 2.508a.167.167 0 00-.121.05.174.174 0 00-.05.123c0 .098.077.176.171.176.424-.009.846.069 1.241.228.395.16.755.397 1.06.7.622.617.925 1.446.936 2.53 0 .097.076.176.172.176v-.007a.17.17 0 00.12-.05.177.177 0 00.052-.123c.02-.51-.06-1.02-.239-1.498a3.78 3.78 0 00-.796-1.28C8.269 2.857 7.41 2.508 6.4 2.508zm-2.256.401a.526.526 0 00-.35.07h-.01a2.7 2.7 0 00-.653.55 1.064 1.064 0 00-.263.55.761.761 0 00.027.318l.011.007a7.97 7.97 0 00.687 1.515 8.909 8.909 0 001.324 1.85l.016.024.024.018.015.018.018.016a8.86 8.86 0 001.815 1.36c.754.42 1.21.618 1.485.7v.004c.08.025.154.037.227.037.234-.018.456-.115.63-.276.21-.192.39-.418.53-.67v-.004c.131-.253.087-.492-.103-.654-.38-.34-.79-.641-1.226-.9-.292-.162-.589-.064-.709.1l-.256.33c-.132.164-.37.142-.37.142l-.007.004C5.226 7.554 4.75 5.71 4.75 5.71s-.022-.25.143-.378l.321-.264c.154-.128.26-.43.096-.73a7.871 7.871 0 00-.878-1.253.486.486 0 00-.288-.176v.001zm2.552.52c-.227 0-.227.35.002.35a2.133 2.133 0 011.511.671 2.063 2.063 0 01.513 1.499c.001.046.02.09.052.123a.17.17 0 00.12.05l.007.01a.171.171 0 00.121-.052.179.179 0 00.05-.124c.016-.695-.195-1.278-.61-1.746-.417-.467-.999-.73-1.741-.781h-.025zm.281.943c-.234-.007-.243.351-.01.358.563.03.837.321.873.92.001.046.02.09.05.122.033.032.075.05.12.05h.007a.17.17 0 00.12-.058.177.177 0 00.044-.129c-.04-.781-.457-1.222-1.197-1.262h-.007z" fill="#fff"/></svg>