<svg width="14" height="14" fill="none" xmlns="http://www.w3.org/2000/svg"><path fill-rule="evenodd" clip-rule="evenodd" d="M10.159 8.39c-.174-.087-1.026-.506-1.185-.565-.159-.057-.274-.086-.39.088-.116.173-.448.563-.549.679-.101.116-.202.13-.375.044-.174-.088-.732-.27-1.394-.86A5.218 5.218 0 015.3 6.573c-.1-.173-.01-.267.076-.353.078-.078.173-.203.26-.304.087-.101.116-.173.174-.29.058-.115.029-.216-.015-.303-.043-.087-.39-.94-.534-1.287-.14-.338-.284-.292-.39-.298a7.51 7.51 0 00-.333-.006.635.635 0 00-.462.217c-.159.174-.606.593-.606 1.446s.62 1.678.707 1.794c.087.115 1.222 1.866 2.961 2.617.415.179.737.285.989.365a2.37 2.37 0 001.092.068c.332-.05 1.025-.419 1.17-.824.144-.405.144-.752.1-.824-.043-.072-.158-.116-.332-.202zm-3.163 4.318h-.002a5.757 5.757 0 01-2.936-.804l-.21-.125-2.183.573.583-2.128-.137-.218a5.752 5.752 0 01-.881-3.068 5.774 5.774 0 015.768-5.766c1.54 0 2.988.6 4.077 1.69a5.732 5.732 0 011.687 4.08 5.774 5.774 0 01-5.766 5.766zm4.907-10.673A6.891 6.891 0 006.995 0C3.172 0 .06 3.112.058 6.937a6.92 6.92 0 00.926 3.468L0 14l3.677-.965a6.93 6.93 0 003.316.845h.003c3.823 0 6.936-3.112 6.937-6.938a6.895 6.895 0 00-2.03-4.907z" fill="#fff"/></svg>