<svg display='none' xmlns="http://www.w3.org/2000/svg">
<symbol id='facebook' viewBox="0 0 7 11">
<path d="M7 .31a.3.3 0 00-.093-.217.325.325 0 00-.225-.09H5.09a3.113 3.113 0 00-2.182.745 2.87 2.87 0 00-1 2.005v1.65H.32a.325.325 0 00-.226.089.3.3 0 00-.093.216v1.588a.3.3 0 00.093.216c.06.057.14.09.225.09H1.91v4.092a.3.3 0 00.093.216c.06.058.14.09.225.09h1.91a.325.325 0 00.224-.09.3.3 0 00.094-.216V6.601h1.667c.07.001.14-.02.196-.061a.305.305 0 00.116-.165l.458-1.588a.294.294 0 00-.054-.264.316.316 0 00-.252-.12H4.455v-1.65a.603.603 0 01.207-.393.652.652 0 01.429-.157h1.59a.325.325 0 00.226-.09A.3.3 0 007 1.897V.31z"/>
</symbol>
<symbol id="instagram" viewBox="0 0 14 14">
<path fill-rule="evenodd" clip-rule="evenodd" d="M4.114.042C4.861.008 5.1 0 7 0c1.901 0 2.14.008 2.885.042.746.034 1.255.153 1.7.325.467.176.89.452 1.24.808.357.35.632.772.807 1.24.173.445.292.954.326 1.698C13.992 4.861 14 5.1 14 7s-.008 2.14-.042 2.886c-.034.745-.153 1.254-.326 1.699-.175.467-.45.89-.807 1.24-.35.357-.773.632-1.24.807-.445.173-.954.292-1.698.326C9.139 13.992 8.9 14 7 14s-2.14-.008-2.886-.042c-.744-.034-1.254-.153-1.699-.326a3.435 3.435 0 01-1.24-.807 3.431 3.431 0 01-.808-1.24c-.172-.445-.29-.954-.325-1.698C.008 9.139 0 8.9 0 7s.008-2.14.042-2.885c.034-.746.153-1.255.325-1.7.176-.468.452-.89.808-1.24.35-.356.773-.632 1.24-.808.445-.172.954-.29 1.698-.325h.001zm5.715 1.26c-.739-.034-.96-.04-2.829-.04-1.869 0-2.09.006-2.829.04-.682.031-1.053.145-1.3.241-.326.127-.56.278-.805.523a2.171 2.171 0 00-.523.805c-.096.247-.21.618-.241 1.3-.034.739-.04.96-.04 2.829 0 1.869.006 2.09.04 2.829.031.682.145 1.053.241 1.3.112.303.291.579.523.805.226.232.502.41.805.523.247.096.618.21 1.3.241.739.034.96.04 2.829.04 1.87 0 2.09-.006 2.829-.04.682-.031 1.053-.145 1.3-.241.326-.128.56-.278.805-.523.232-.226.41-.502.523-.805.096-.247.21-.617.241-1.3.034-.739.04-.96.04-2.829 0-1.869-.006-2.09-.04-2.829-.031-.682-.145-1.053-.241-1.3a2.174 2.174 0 00-.523-.805 2.172 2.172 0 00-.805-.523c-.247-.096-.617-.21-1.3-.241zM6.106 9.158A2.335 2.335 0 107.786 4.8a2.336 2.336 0 00-1.68 4.357zm-1.65-4.702a3.598 3.598 0 115.088 5.088 3.598 3.598 0 01-5.088-5.088zm6.94-.518A.85.85 0 1010.23 2.7a.85.85 0 001.166 1.237z"/>
</symbol>
<symbol id="telegram" viewBox="0 0 14 11">
<path d="M13.055.072L.654 4.552c-.847.319-.842.761-.156.959l3.184.93 7.367-4.354c.348-.199.667-.092.405.126L5.486 7.259h-.002.002l-.22 3.075c.322 0 .464-.138.644-.301l1.547-1.41 3.216 2.227c.594.306 1.02.149 1.167-.514l2.112-9.324c.216-.812-.331-1.18-.897-.94z"/>
</symbol>
<symbol id="viber" viewBox="0 0 13 14">
<path d="M6.158.002C5.058.016 2.695.2 1.374 1.44.39 2.436.047 3.908.007 5.729c-.033 1.814-.074 5.22 3.139 6.148v1.413s-.02.565.345.681c.45.146.707-.289 1.135-.756l.798-.923c2.198.187 3.882-.244 4.076-.307.446-.146 2.958-.474 3.368-3.882.421-3.518-.205-5.736-1.335-6.738h-.007C11.185 1.043 9.814.022 6.75.01c0 0-.228-.016-.593-.01v.001zm.038.99c.312-.003.501.01.501.01 2.593.008 3.83.805 4.122 1.074.952.834 1.443 2.833 1.083 5.77-.34 2.849-2.378 3.03-2.755 3.152-.16.053-1.643.426-3.511.303 0 0-1.391 1.716-1.826 2.158-.07.078-.15.1-.201.09-.074-.02-.096-.112-.092-.24l.014-2.345C.806 10.194.967 7.288.996 5.77c.033-1.518.312-2.76 1.141-3.6C3.254 1.137 5.261.998 6.195.99zM6.4 2.508a.167.167 0 00-.121.05.174.174 0 00-.05.123c0 .098.077.176.171.176.424-.009.846.069 1.241.228.395.16.755.397 1.06.7.622.617.925 1.446.936 2.53 0 .097.076.176.172.176v-.007a.17.17 0 00.12-.05.177.177 0 00.052-.123c.02-.51-.06-1.02-.239-1.498a3.78 3.78 0 00-.796-1.28C8.269 2.857 7.41 2.508 6.4 2.508zm-2.256.401a.526.526 0 00-.35.07h-.01a2.7 2.7 0 00-.653.55 1.064 1.064 0 00-.263.55.761.761 0 00.027.318l.011.007a7.97 7.97 0 00.687 1.515 8.909 8.909 0 001.324 1.85l.016.024.024.018.015.018.018.016a8.86 8.86 0 001.815 1.36c.754.42 1.21.618 1.485.7v.004c.08.025.154.037.227.037.234-.018.456-.115.63-.276.21-.192.39-.418.53-.67v-.004c.131-.253.087-.492-.103-.654-.38-.34-.79-.641-1.226-.9-.292-.162-.589-.064-.709.1l-.256.33c-.132.164-.37.142-.37.142l-.007.004C5.226 7.554 4.75 5.71 4.75 5.71s-.022-.25.143-.378l.321-.264c.154-.128.26-.43.096-.73a7.871 7.871 0 00-.878-1.253.486.486 0 00-.288-.176v.001zm2.552.52c-.227 0-.227.35.002.35a2.133 2.133 0 011.511.671 2.063 2.063 0 01.513 1.499c.001.046.02.09.052.123a.17.17 0 00.12.05l.007.01a.171.171 0 00.121-.052.179.179 0 00.05-.124c.016-.695-.195-1.278-.61-1.746-.417-.467-.999-.73-1.741-.781h-.025zm.281.943c-.234-.007-.243.351-.01.358.563.03.837.321.873.92.001.046.02.09.05.122.033.032.075.05.12.05h.007a.17.17 0 00.12-.058.177.177 0 00.044-.129c-.04-.781-.457-1.222-1.197-1.262h-.007z"/>
</symbol>
<symbol id="whatsApp" viewBox="0 0 14 14">
<path fill-rule="evenodd" clip-rule="evenodd" d="M10.159 8.39c-.174-.087-1.026-.506-1.185-.565-.159-.057-.274-.086-.39.088-.116.173-.448.563-.549.679-.101.116-.202.13-.375.044-.174-.088-.732-.27-1.394-.86A5.218 5.218 0 015.3 6.573c-.1-.173-.01-.267.076-.353.078-.078.173-.203.26-.304.087-.101.116-.173.174-.29.058-.115.029-.216-.015-.303-.043-.087-.39-.94-.534-1.287-.14-.338-.284-.292-.39-.298a7.51 7.51 0 00-.333-.006.635.635 0 00-.462.217c-.159.174-.606.593-.606 1.446s.62 1.678.707 1.794c.087.115 1.222 1.866 2.961 2.617.415.179.737.285.989.365a2.37 2.37 0 001.092.068c.332-.05 1.025-.419 1.17-.824.144-.405.144-.752.1-.824-.043-.072-.158-.116-.332-.202zm-3.163 4.318h-.002a5.757 5.757 0 01-2.936-.804l-.21-.125-2.183.573.583-2.128-.137-.218a5.752 5.752 0 01-.881-3.068 5.774 5.774 0 015.768-5.766c1.54 0 2.988.6 4.077 1.69a5.732 5.732 0 011.687 4.08 5.774 5.774 0 01-5.766 5.766zm4.907-10.673A6.891 6.891 0 006.995 0C3.172 0 .06 3.112.058 6.937a6.92 6.92 0 00.926 3.468L0 14l3.677-.965a6.93 6.93 0 003.316.845h.003c3.823 0 6.936-3.112 6.937-6.938a6.895 6.895 0 00-2.03-4.907z"/>
</symbol>
</svg>



